#!OML:ASF F:\VICON\USERDATA\INSTALL\rory3\rory3.ASF
:FULLY-SPECIFIED
:DEGREES
81
root 0.22048646714158776 17.86754101447492 27.26691235236891 -0.9486678064956785 -3.5982978076902628 -6.965954337701071
lfemur -24.569114546018554 -0.8176930934018596 -11.192196390208338
ltibia 45.12595292246944
lfoot -4.90403964138567 3.412292727323739
ltoes -6.284026842736662
rfemur -1.174375529049927 6.183916194990628 34.72374925886644
rtibia 26.562611514647383
rfoot -19.327389604360523 -7.485158561674891
rtoes 6.280007948855122
lowerback 10.421915124598959 1.5127946884929717 5.829395017006041
upperback 0.29322177944768874 2.7747577684914506 2.2149778836651723
thorax -5.308265542987174 1.2660182742106865 -1.3423144363050006
lowerneck -16.81332491429588 -2.874468212845337 -1.6580749643465926
upperneck 19.175364475725413 -3.7461109880422603 1.0598270526279916
head 8.81004996853262 -1.7633189936958966 0.14721300051263508
lclavicle -5.310480480446071e-16 -4.771532842747172e-16
lhumerus -33.27302603479473 4.391848702932229 82.74216042409003
lradius 31.384246637003653
lwrist 7.153858234916777
lhand -29.25460067868672 19.649474669223714
lfingers 7.125020000000058
lthumb -2.5972703195018525 49.62054279823239
rclavicle -5.310480480446065e-16 -4.771532842747173e-16
rhumerus -26.367966385752524 -9.347627870641158 -83.72250304303245
rradius 37.83040099556236
rwrist -2.7241587518353825
rhand -17.667367346700665 30.222069370424435
rfingers 7.125020000000058
rthumb 8.591431261869868 -4.972144180363827
82
root 0.26748548450543547 17.841968987769217 24.155384180162162 -0.8117398984492942 -3.870258324406247 -6.664156086431726
lfemur -23.71213876411455 -1.7943141668856901 -11.82873417155809
ltibia 38.5948813760438
lfoot -4.443354397152172 3.2341346092012087
ltoes -7.048245693615979
rfemur 0.010176445260102085 5.910757800511439 33.890854329412115
rtibia 29.31079426323144
rfoot -16.838830106498158 -6.054725508573102
rtoes 5.984149028917484
lowerback 10.3594077292745 1.6768913622398758 5.622492628922491
upperback 0.2306407733695819 2.958189844431382 2.0334337613065587
thorax -5.348240593945148 1.3567203000254267 -1.449464849907049
lowerneck -16.901297100373835 -2.9612623749180402 -1.609759435092088
upperneck 19.2242369495659 -3.8738692732371454 1.060616587066637
head 8.850236701074865 -1.8222217750178082 0.12453058416908436
lclavicle -6.380736043007628e-16 -5.600365509650409e-16
lhumerus -34.24375413872287 5.162448830185678 82.43631412141187
lradius 31.070375920166043
lwrist 6.641616358146644
lhand -29.329340354581127 19.34752324127242
lfingers 7.125020000000058
lthumb -2.669418268463136 49.31835836615037
rclavicle -6.38073604300763e-16 -5.600365509650409e-16
rhumerus -26.19988115138139 -9.361071631853052 -83.702453513152
rradius 38.402062966074
rwrist -2.8131824909029985
rhand -17.73789930632956 30.78319880257765
rfingers 7.125020000000058
rthumb 8.523504055916613 -5.143388900115332
83
root 0.31686888440513405 17.82719961345457 21.29410303975805 -0.8835405602690037 -4.04630032917793 -6.47339564942207
lfemur -23.41768098788569 -2.579674935005098 -12.279918727426562
ltibia 33.44608276517543
lfoot -3.6476666696765796 2.6474510905722717
ltoes -7.424960511777681
rfemur 1.6844522295777455 5.626993418690653 33.27848915050149
rtibia 32.65342456669639
rfoot -14.164821211173152 -4.60197939572188
rtoes 6.0768263863459975
lowerback 10.27045875602353 1.8523856410308985 5.537879120199699
upperback 0.18018963989501896 3.1754520039057472 1.8871217086120984
thorax -5.364858571879765 1.4593986060613156 -1.5944841590974024
lowerneck -16.911256734497496 -3.057509731198057 -1.553878307435504
upperneck 19.447469251347073 -4.011967135217688 1.0186463083085355
head 8.93511843155302 -1.8903854972984133 0.08439372086662195
lclavicle -7.24441679606092e-16 -6.269152941533398e-16
lhumerus -35.44662035666391 6.1727128396531565 82.05653655407671
lradius 29.91009999427052
lwrist 5.753958482805116
lhand -29.358625590892032 19.312069752596766
lfingers 7.125020000000058
lthumb -2.6976621323609806 49.28395800763968
rclavicle -7.244416796060921e-16 -6.269152941533397e-16
rhumerus -25.659706247915047 -9.787646482616347 -83.37799568677576
rradius 38.113249881454465
rwrist -2.500100759900924
rhand -17.763141870424676 31.22163049453045
rfingers 7.125020000000058
rthumb 8.499253934877133 -5.389457506116953
84
root 0.34463890229385263 17.80718687831433 17.869767278344547 -0.9615098292609131 -3.9766541627552967 -6.1678757102744
lfemur -23.118496739588593 -2.9619387702039424 -12.929242795197574
ltibia 30.769348640094528
lfoot -3.21294433735674 1.818940921337889
ltoes -7.518128102977318
rfemur 2.1447079688840827 5.142585773975188 32.57483426150384
rtibia 37.46054277436368
rfoot -11.848671676288074 -3.5398881845636923
rtoes 6.420321692783363
lowerback 10.409359590122843 1.9439319483704405 5.285889778691545
upperback 0.1459179613273872 3.2646325398159366 1.746678223967556
thorax -5.501286906390373 1.5036793647146944 -1.6198677064373497
lowerneck -16.96713514945202 -3.16609345479792 -1.5136180714861966
upperneck 19.504172718774967 -4.171204659234247 1.04473196346946
head 8.974691694613728 -1.9639886303871215 0.06769002815336417
lclavicle -8.128184829166141e-16 -6.953586028967457e-16
lhumerus -36.677604684008664 6.515652948948642 82.0988551309709
lradius 30.507253034505595
lwrist 5.551554220903343
lhand -29.28055233416706 19.01028467047926
lfingers 7.125020000000057
lthumb -2.62223612258775 48.98234077040654
rclavicle -8.128184829166143e-16 -6.95358602896746e-16
rhumerus -25.710218333542613 -9.926932077231642 -83.35277515851527
rradius 38.929746964662314
rwrist -2.312298950436176
rhand -17.83562237911679 31.56207926236129
rfingers 7.125020000000057
rthumb 8.4293498762957 -5.34880998245685
85
root 0.36163785794896247 17.783367419784806 14.609364551153856 -1.0521912586820008 -3.6325206791529876 -5.701168571088491
lfemur -23.03643550663805 -2.958300300043139 -13.871767892174457
ltibia 30.116266922191386
lfoot -3.503609925829484 0.8739957365798396
ltoes -6.980935111358702
rfemur 1.8963300210070368 4.5597630827625215 31.696022829080647
rtibia 42.607466207917206
rfoot -9.509891469632956 -3.138732615769011
rtoes 6.611302770743347
lowerback 10.679792227856844 1.9758548145893622 4.871073001752224
upperback 0.11572896902190938 3.259419887890745 1.5948642363824086
thorax -5.706354957400176 1.504131679315829 -1.5613842014128747
lowerneck -17.030006876483924 -3.3044716167799626 -1.5127646336954577
upperneck 19.434332161091753 -4.370956500492211 1.1365938676369156
head 8.977135225666052 -2.0534754070124057 0.0758825110648339
lclavicle -9.002598765743029e-16 -7.630375173912295e-16
lhumerus -38.02164357571303 6.211818458463727 82.46195164947237
lradius 32.379806816867955
lwrist 5.8733350386470935
lhand -29.118197975842197 18.56326428204301
lfingers 7.125020000000057
lthumb -2.465421070951002 48.53636473356738
rclavicle -9.002598765743029e-16 -7.630375173912294e-16
rhumerus -26.062649482048702 -9.759937591200046 -83.58258769123698
rradius 40.60807003602848
rwrist -2.3316233230515486
rhand -17.915092781483335 31.730865971345725
rfingers 7.125020000000057
rthumb 8.35268666851292 -5.167520046201249
86
root 0.37362613919425697 17.761671632025635 12.03889491125928 -1.138889461660026 -3.1941371960894727 -5.182647338468771
lfemur -23.132211481786896 -2.6830220326240357 -14.878751620654986
ltibia 30.843723279238226
lfoot -4.247459441616446 0.04458080589504121
ltoes -5.994255052176927
rfemur 1.2031029672648028 3.9782002009940145 30.81457497199833
rtibia 47.34429576200331
rfoot -7.357870444741893 -3.2673218659079435
rtoes 6.622291750364018
lowerback 10.992564029123256 1.9677267492891524 4.4147376394394895
upperback 0.08789686800596741 3.199681243049306 1.4545307831184573
thorax -5.928592596417331 1.4786674136805122 -1.4574576796238992
lowerneck -17.08545736768418 -3.4387370236198955 -1.537926735954151
upperneck 19.30377827004576 -4.561744695736197 1.2527551938503856
head 8.958143818042092 -2.1383525279832196 0.09788871108285535
lclavicle -9.68253610429599e-16 -8.156413340789021e-16
lhumerus -39.27461110485685 5.576562831878578 82.9599034818244
lradius 34.74355298430112
lwrist 6.470183715618855
lhand -28.913824289016272 18.120637146842917
lfingers 7.125020000000057
lthumb -2.2680357567152365 48.09427661109865
rclavicle -9.682536104295991e-16 -8.156413340789021e-16
rhumerus -26.490589447467563 -9.37167932386729 -83.95677762339922
rradius 42.64147423080205
rwrist -2.5208652385023944
rhand -17.973401831431257 31.740383468736823
rfingers 7.125020000000057
rthumb 8.296444657949552 -4.943602661254591
87
root 0.3844762364558103 17.732960351585554 10.523519357488329 -1.2654703289408276 -2.7930658125980936 -4.6785981849878375
lfemur -23.23975851898946 -2.3321954320299736 -15.798253578734363
ltibia 31.948777046404775
lfoot -5.517974460843153 -0.3805871202462683
ltoes -4.847990470033649
rfemur 0.38997225931147206 3.466179895949454 29.971020618031567
rtibia 51.465736217927095
rfoot -5.546098208101833 -3.714130435816682
rtoes 6.672533641025749
lowerback 11.264668994196105 1.9511162576600634 3.9781480310336645
upperback 0.08040500898648023 3.1327701538102883 1.3324453886683387
thorax -6.096569342622759 1.4497560285227613 -1.3404636621274473
lowerneck -17.110599596704912 -3.541415978918579 -1.5711407335445386
upperneck 19.204668964392845 -4.706456879335901 1.35326351360986
head 8.941613736040406 -2.203077150439513 0.12056194403934856
lclavicle -1.0023015111569452e-15 -8.419689547174129e-16
lhumerus -40.18521442581578 5.027170202643745 83.34979243015789
lradius 36.40210259049652
lwrist 6.987045772798309
lhand -28.74151611920675 17.853115986466527
lfingers 7.125020000000057
lthumb -2.101624306548909 47.82748850028172
rclavicle -1.0023015111569446e-15 -8.419689547174136e-16
rhumerus -26.709455293773736 -9.11895962051965 -84.22538144006684
rradius 44.01088433131375
rwrist -2.59708625790197
rhand -18.00088426424797 31.626715174679187
rfingers 7.125020000000057
rthumb 8.269942762539939 -4.7988019143921345
